<svg width="15" height="12" viewBox="0 0 15 12" fill="none" xmlns="http://www.w3.org/2000/svg">
<path fill-rule="evenodd" clip-rule="evenodd" d="M9.14496 9.64819C8.76066 10.0325 8.76066 10.6556 9.14496 11.0399C9.52927 11.4242 10.1524 11.4242 10.5367 11.0399L14.7118 6.86479C14.947 6.62952 15.0383 6.30477 14.9855 6.0001C15.0383 5.69542 14.947 5.37067 14.7118 5.1354L10.5367 0.960299C10.1524 0.575991 9.52927 0.575991 9.14496 0.960299C8.76066 1.34461 8.76066 1.96769 9.14496 2.352L11.809 5.01601L0.984081 5.01602C0.440588 5.01602 -5.13305e-07 5.4566 -4.65791e-07 6.0001C-4.18277e-07 6.54359 0.440588 6.98418 0.984081 6.98418L11.809 6.98418L9.14496 9.64819Z" fill="#393B3F"/>
</svg>
